<?xml version="1.0" encoding="UTF-8" standalone="no"?>
<svg version="1.1" xmlns="http://www.w3.org/2000/svg" xmlns:xlink="http://www.w3.org/1999/xlink" width="41" height="31">
	<path id="dp_path001" fill="#5b5b5b" fill-rule="evenodd" d="M 20.9227,15.3907 C 20.9227,14.8133 21.2307,14.28 21.7307,13.992 L 38.4987,0 C 38.9987,-0.289333 39.6147,-0.289333 40.1147,0 S 40.9227,0.821333 40.9227,1.39867 L 40.9227,29.3827 C 40.9227,29.96 40.6147,30.4933 40.1147,30.7827 C 39.8653,30.9267 39.5853,30.9987 39.3067,30.9987 C 39.0267,30.9987 38.7493,30.9267 38.4987,30.7827 L 21.7293,16.7907 C 21.2293,16.5013 20.9227,15.968 20.9227,15.3907 Z M 0.884,16.7907 L 17.6533,30.7813 C 17.9027,30.9267 18.1813,30.9987 18.4613,30.9987 S 19.0187,30.9253 19.2693,30.7813 C 19.7693,30.4933 20.0773,29.96 20.0773,29.3827 L 20.0773,1.39867 C 20.0773,0.821333 19.7693,0.288 19.2693,0 C 18.7693,-0.289333 18.1533,-0.289333 17.6533,0 L 0.884,13.992 C 0.385333,14.2787 0.076,14.8133 0.076,15.3907 C 0.076,15.968 0.384,16.5013 0.884,16.7907 Z "/>
</svg>