<?xml version="1.0" encoding="UTF-8" standalone="no"?>
<svg version="1.1" xmlns="http://www.w3.org/2000/svg" xmlns:xlink="http://www.w3.org/1999/xlink" width="41.7387" height="31.304">
	<path id="dp_path001" fill="#5b5b5b" fill-rule="evenodd" d="M 20.076,15.608 C 20.076,16.1853 19.768,16.7187 19.268,17.0067 L 2.5,30.9987 C 2,31.288 1.384,31.288 0.884,30.9987 S 0.076,30.1773 0.076,29.6 L 0.076,1.616 C 0.076,1.03867 0.384,0.505333 0.884,0.216 C 1.13333,0.072 1.41333,0 1.692,0 C 1.972,0 2.24933,0.072 2.5,0.216 L 19.2693,14.208 C 19.7693,14.4973 20.076,15.0307 20.076,15.608 Z M 40.1147,14.208 L 23.3453,0.217333 C 23.096,0.072 22.8173,0 22.5373,0 S 21.98,0.0733333 21.7293,0.217333 C 21.2293,0.505333 20.9213,1.03867 20.9213,1.616 L 20.9213,29.6 C 20.9213,30.1773 21.2293,30.7107 21.7293,30.9987 C 22.2293,31.288 22.8453,31.288 23.3453,30.9987 L 40.1147,17.0067 C 40.6133,16.72 40.9227,16.1853 40.9227,15.608 C 40.9227,15.0307 40.6147,14.4973 40.1147,14.208 Z "/>
</svg>