<?xml version="1.0" encoding="UTF-8" standalone="no"?>
<svg version="1.1" xmlns="http://www.w3.org/2000/svg" xmlns:xlink="http://www.w3.org/1999/xlink" width="200" height="55">
	<defs>
		<linearGradient id="grad_dp_001" gradientUnits="userSpaceOnUse" x1="158.531" y1="22.1973" x2="170.896" y2="22.1973">
			<stop offset="0" stop-color="#038b49"/>
			<stop offset="1" stop-color="#02a659"/>
		</linearGradient>
		<linearGradient id="grad_dp_002" gradientUnits="userSpaceOnUse" x1="180.557" y1="22.1973" x2="192.921" y2="22.1973">
			<stop offset="0" stop-color="#ec3136"/>
			<stop offset="1" stop-color="#c23636"/>
		</linearGradient>
		<linearGradient id="grad_dp_003" gradientUnits="userSpaceOnUse" x1="175.727" y1="27.0107" x2="175.727" y2="40.4307">
			<stop offset="0" stop-color="#f58633"/>
			<stop offset="1" stop-color="#c15e33"/>
		</linearGradient>
		<linearGradient id="grad_dp_004" gradientUnits="userSpaceOnUse" x1="175.727" y1="17.3133" x2="175.727" y2="6.14933">
			<stop offset="0" stop-color="#a13035"/>
			<stop offset="1" stop-color="#72282d"/>
		</linearGradient>
	</defs>
	<g id="dp_dp001">
		<path id="dp_path002" fill="#9d2933" fill-rule="evenodd" d="M 11.02,23.44 C 6.71467,23.44 4.78667,19.1667 4.78667,16.1787 C 4.78667,11.9387 6.39333,10.456 8.70667,10.456 C 9.91067,10.456 11.8453,11.208 12.916,13.32 C 13.6173,14.7053 13.7507,16.7573 13.7507,18.8133 C 13.7507,23.2147 12.6907,23.44 11.02,23.44 Z M 9.912,34.1707 C 13.6547,34.1707 15.004,35.552 15.004,37.2227 C 15.004,40.1147 12.3373,41.4307 8.836,41.4307 C 5.20533,41.4307 4.53067,39.5667 4.53067,38.3787 C 4.53067,37.0507 5.19733,35.34 5.73333,34.1707 C 7.16667,34.1707 6.52933,34.1707 9.912,34.1707 Z M 21.3333,9.208 L 15.5933,9.208 C 14.2067,7.936 12.3427,7.14 9.928,7.14 C 4.916,7.14 0.289333,10.456 0.289333,17.764 C 0.289333,21.8373 2.07067,24.6307 5.10133,25.8987 C 3.71867,27.2827 1.90133,28.4493 0.161333,29.2547 C -0.028,33.0693 2.152,33.9427 4.12933,34.124 C 3.068,35.8013 1.41467,37.024 0.289333,37.48 C 0.289333,37.48 0,37.576 0,39.3427 C 0,44.9333 4.78667,45.2867 8.35333,45.2867 C 16.3533,45.2867 19.8227,39.9533 19.8227,36.4187 C 19.8227,30.9587 15.7427,30.38 12.5627,30.38 C 9.38133,30.38 10.5707,30.38 7.51867,30.38 C 5.816,30.38 5.30133,29.7373 5.30133,29.0613 C 5.30133,28.4827 5.96533,27.5747 6.98133,26.4573 C 7.704,26.596 8.46933,26.6733 9.28533,26.6733 C 17.5093,26.6733 18.752,20.7187 18.752,17.5507 C 18.752,15.496 18.3347,13.4413 17.452,11.7027 L 21.3333,11.7027 Z "/>
		<path id="dp_path003" fill="#9d2933" fill-rule="evenodd" d="M 33.8947,23.44 C 29.5893,23.44 27.6613,19.1667 27.6613,16.1787 C 27.6613,11.9387 29.268,10.456 31.5827,10.456 C 32.7853,10.456 34.72,11.208 35.7907,13.32 C 36.492,14.7053 36.6253,16.7573 36.6253,18.8133 C 36.6253,23.2147 35.5653,23.44 33.8947,23.44 Z M 32.7867,34.1707 C 36.5293,34.1707 37.8787,35.552 37.8787,37.2227 C 37.8787,40.1147 35.212,41.4307 31.7107,41.4307 C 28.08,41.4307 27.4053,39.5667 27.4053,38.3787 C 27.4053,37.0507 28.072,35.34 28.608,34.1707 C 30.0427,34.1707 29.404,34.1707 32.7867,34.1707 Z M 44.208,9.208 L 38.4667,9.208 C 37.0813,7.936 35.2173,7.14 32.8027,7.14 C 27.7907,7.14 23.164,10.456 23.164,17.764 C 23.164,21.8373 24.944,24.6307 27.976,25.8987 C 26.5933,27.2827 24.776,28.4493 23.036,29.2547 C 22.8467,33.0693 25.0253,33.9427 27.004,34.124 C 25.9427,35.8013 24.2893,37.024 23.164,37.48 C 23.164,37.48 22.8747,37.576 22.8747,39.3427 C 22.8747,44.9333 27.6613,45.2867 31.228,45.2867 C 39.228,45.2867 42.6973,39.9533 42.6973,36.4187 C 42.6973,30.9587 38.6173,30.38 35.4373,30.38 C 32.256,30.38 33.4453,30.38 30.392,30.38 C 28.6893,30.38 28.176,29.7373 28.176,29.0613 C 28.176,28.4827 28.8387,27.5747 29.856,26.4573 C 30.5787,26.596 31.3427,26.6733 32.16,26.6733 C 40.384,26.6733 41.6267,20.7187 41.6267,17.5507 C 41.6267,15.496 41.2093,13.4413 40.328,11.7027 L 44.208,11.7027 Z "/>
		<path id="dp_path004" fill="#9d2933" fill-rule="evenodd" d="M 59.5973,35.9373 L 66.664,35.9373 C 66.664,35.9373 65.54,34.2667 65.54,30.0573 C 65.54,22.1227 65.54,17.2067 65.54,13.416 C 65.54,9.62533 62.648,7.14 59.0827,7.14 C 55.8373,7.14 55.1307,7.98667 53.8787,9.94533 C 53.2293,10.9627 52.6173,11.748 52.176,12.276 C 52.176,9.516 52.176,7.56933 52.176,7.56933 L 45.9093,7.56933 C 45.9093,7.56933 47.164,9.208 47.164,12.356 C 47.164,15.504 47.164,25.1107 47.164,29.6733 C 47.164,34.2347 45.9093,35.9373 45.9093,35.9373 L 52.9467,35.9373 C 52.9467,35.9373 52.176,34.0733 52.176,29.9293 C 52.176,27.504 52.176,20.2627 52.176,14.668 C 54.152,12.1133 54.9493,10.9733 56.8333,10.9733 C 58.568,10.9733 60.5293,12.0347 60.5293,15.536 C 60.5293,20.1307 60.5293,26.8773 60.5293,30.444 C 60.5293,34.0093 59.5973,35.9373 59.5973,35.9373 Z "/>
		<path id="dp_path005" fill="#9d2933" fill-rule="evenodd" d="M 129.569,35.9373 L 69.2987,35.9373 C 69.2987,35.9373 67.7573,35.8867 67.7573,27.788 C 67.7573,19.692 67.7573,21.9613 67.7573,14.38 C 67.7573,6.79733 61.9747,7.14 61.9747,7.14 C 61.9747,7.14 119.032,7.14 122.245,7.14 C 125.459,7.14 128.156,8.98267 128.156,12.8053 C 128.156,18.9573 128.156,28.2027 128.156,30.572 C 128.156,35.0693 129.569,35.9373 129.569,35.9373 Z "/>
		<path id="dp_path006" fill="#797d82" fill-rule="evenodd" d="M 129.569,40.5973 L 45.6107,40.5973 L 45.6107,38.54 L 129.569,38.54 Z "/>
		<path id="dp_path007" fill="#fefefe" fill-rule="evenodd" d="M 74.0813,21.696 C 74.9213,21.5893 75.5653,21.3253 76.0147,20.9053 C 76.4653,20.4867 76.6893,19.9573 76.6893,19.3227 C 76.6893,18.6693 76.4613,18.144 76.0067,17.7493 C 75.5533,17.3533 74.912,17.1507 74.0813,17.14 Z M 74.0813,24.304 C 74.0813,24.832 74.1187,25.3333 74.1907,25.8067 C 74.2653,26.28 74.3893,26.7413 74.5653,27.1907 L 71.9133,27.1907 C 72.0893,26.7413 72.2147,26.28 72.2867,25.8067 C 72.36,25.3333 72.396,24.832 72.396,24.304 L 72.396,18.9867 C 72.396,18.46 72.36,17.9587 72.2867,17.4853 C 72.2147,17.0107 72.0893,16.5507 71.9133,16.1013 L 73.7573,16.1013 C 75.3413,16.1013 76.5213,16.364 77.2973,16.892 C 78.0733,17.4187 78.4613,18.2347 78.4613,19.3373 C 78.4613,19.9827 78.2707,20.5427 77.8907,21.016 C 77.5093,21.4907 76.948,21.8533 76.2053,22.1067 C 76.7613,23.016 77.36,23.892 78,24.7373 C 78.64,25.5813 79.336,26.3987 80.0893,27.1907 L 78.4467,27.1907 C 78.2133,27.1907 77.7213,26.772 76.9747,25.9307 C 76.228,25.0907 75.2627,23.8053 74.0813,22.0787 Z "/>
		<path id="dp_path008" fill="#fefefe" fill-rule="evenodd" d="M 84.7467,22.62 L 84.7467,22.488 C 84.7467,21.0813 84.264,20.3773 83.296,20.3773 C 82.3,20.3773 81.7573,21.1253 81.6707,22.62 Z M 81.684,23.5573 C 81.684,24.3387 81.8427,24.9387 82.1613,25.352 C 82.4787,25.768 82.9293,25.9747 83.5147,25.9747 C 83.7987,25.9747 84.116,25.924 84.4693,25.8213 C 84.82,25.7187 85.2147,25.5707 85.6547,25.3733 L 84.9213,26.9853 C 84.288,27.1907 83.7013,27.2933 83.164,27.2933 C 82.148,27.2933 81.372,26.9587 80.8347,26.2893 C 80.2973,25.62 80.028,24.6413 80.028,23.352 C 80.028,22.7373 80.104,22.1853 80.256,21.696 C 80.408,21.2093 80.6173,20.7933 80.8853,20.452 C 81.1547,20.1107 81.4813,19.848 81.868,19.668 C 82.252,19.4867 82.6813,19.396 83.1493,19.396 C 84.0187,19.396 84.6787,19.6907 85.1267,20.2747 C 85.5773,20.8613 85.8013,21.7453 85.8013,22.928 C 85.8013,23.0347 85.8013,23.14 85.8013,23.2427 C 85.8013,23.3453 85.796,23.4493 85.7867,23.5573 Z "/>
		<path id="dp_path009" fill="#fefefe" fill-rule="evenodd" d="M 86.7387,24.9347 C 87.032,25.4027 87.3533,25.7547 87.7053,25.9893 C 88.056,26.224 88.412,26.3413 88.7747,26.3413 C 89.0867,26.3413 89.336,26.2507 89.5213,26.0707 C 89.7067,25.8893 89.8,25.6573 89.8,25.3733 C 89.8,25.1787 89.7627,25.0147 89.6893,24.884 C 89.6173,24.7507 89.5107,24.6293 89.3747,24.5173 C 89.2373,24.404 89.076,24.2947 88.892,24.1867 C 88.7053,24.08 88.5,23.9587 88.276,23.8213 C 87.788,23.5173 87.4267,23.1987 87.192,22.8613 C 86.9587,22.524 86.8413,22.132 86.8413,21.6827 C 86.8413,21.3493 86.9093,21.0413 87.0453,20.76 C 87.1813,20.476 87.3747,20.232 87.624,20.0267 C 87.8733,19.8213 88.1787,19.6627 88.54,19.5507 C 88.9013,19.4373 89.3013,19.3813 89.7413,19.3813 C 90.2387,19.3813 90.752,19.484 91.2787,19.6907 L 91.2653,21.1693 C 90.7573,20.6613 90.2147,20.408 89.6387,20.408 C 89.2973,20.408 89.0253,20.4973 88.8253,20.6787 C 88.6253,20.8587 88.5253,21.1 88.5253,21.404 C 88.5253,21.6 88.5613,21.764 88.6347,21.8947 C 88.708,22.0267 88.808,22.1467 88.936,22.2533 C 89.0627,22.3613 89.216,22.464 89.3973,22.5613 C 89.5773,22.6587 89.7707,22.7653 89.976,22.884 C 90.4827,23.1773 90.8613,23.4893 91.1107,23.8213 C 91.36,24.152 91.484,24.5587 91.484,25.0373 C 91.484,25.38 91.416,25.688 91.2787,25.968 C 91.1427,26.2467 90.944,26.4827 90.6787,26.6773 C 90.4147,26.8733 90.096,27.0267 89.72,27.14 C 89.344,27.252 88.916,27.308 88.436,27.308 C 88.1533,27.308 87.864,27.2827 87.564,27.2347 C 87.2667,27.1867 86.9587,27.1173 86.636,27.0293 Z "/>
		<path id="dp_path010" fill="#fefefe" fill-rule="evenodd" d="M 96.876,22.62 L 96.876,22.488 C 96.876,21.0813 96.3933,20.3773 95.4253,20.3773 C 94.4307,20.3773 93.888,21.1253 93.8,22.62 Z M 93.8147,23.5573 C 93.8147,24.3387 93.9733,24.9387 94.2907,25.352 C 94.6093,25.768 95.06,25.9747 95.6453,25.9747 C 95.9293,25.9747 96.2467,25.924 96.5987,25.8213 C 96.9493,25.7187 97.3453,25.5707 97.7853,25.3733 L 97.052,26.9853 C 96.4173,27.1907 95.8307,27.2933 95.2947,27.2933 C 94.2787,27.2933 93.5027,26.9587 92.964,26.2893 C 92.428,25.62 92.1587,24.6413 92.1587,23.352 C 92.1587,22.7373 92.236,22.1853 92.3867,21.696 C 92.5373,21.2093 92.7467,20.7933 93.016,20.452 C 93.2853,20.1107 93.6107,19.848 93.9973,19.668 C 94.3827,19.4867 94.812,19.396 95.2787,19.396 C 96.148,19.396 96.808,19.6907 97.256,20.2747 C 97.7053,20.8613 97.932,21.7453 97.932,22.928 C 97.932,23.0347 97.932,23.14 97.932,23.2427 C 97.932,23.3453 97.9267,23.4493 97.916,23.5573 Z "/>
		<path id="dp_path011" fill="#fefefe" fill-rule="evenodd" d="M 102.473,23.7907 L 100.524,23.7907 C 100.348,24.2213 100.26,24.608 100.26,24.9493 C 100.26,25.6813 100.724,26.048 101.652,26.048 C 101.779,26.048 101.907,26.04 102.04,26.0267 C 102.171,26.012 102.316,25.9947 102.473,25.9747 Z M 99.7773,19.6907 C 100.089,19.5933 100.389,19.52 100.677,19.4707 C 100.965,19.4213 101.251,19.396 101.535,19.396 C 102.307,19.396 102.897,19.5947 103.307,19.9893 C 103.717,20.3853 103.923,20.9733 103.923,21.7547 L 103.923,25.2573 C 103.923,26 104.059,26.6427 104.333,27.1907 L 102.473,27.1907 L 102.473,26.1067 C 102.248,26.2693 102.029,26.436 101.819,26.604 C 101.611,26.7733 101.407,26.948 101.212,27.1333 C 101.045,27.1907 100.88,27.22 100.713,27.22 C 100.431,27.22 100.165,27.1707 99.9147,27.0733 C 99.6667,26.976 99.4493,26.8413 99.264,26.6707 C 99.0773,26.5 98.932,26.2987 98.824,26.0707 C 98.716,25.8413 98.664,25.5947 98.664,25.3307 C 98.664,24.9773 98.744,24.676 98.904,24.4213 C 99.0667,24.168 99.304,23.932 99.6227,23.7107 C 99.94,23.492 100.336,23.2787 100.808,23.0747 C 101.283,22.8693 101.837,22.6387 102.473,22.3853 C 102.473,22.3373 102.475,22.2907 102.48,22.2467 C 102.485,22.2027 102.487,22.16 102.487,22.1213 C 102.487,21.076 101.999,20.5547 101.021,20.5547 C 100.767,20.5547 100.507,20.6 100.237,20.6933 C 99.9693,20.7867 99.688,20.92 99.3947,21.096 Z "/>
		<path id="dp_path012" fill="#fefefe" fill-rule="evenodd" d="M 107.393,21.0227 C 107.551,20.7387 107.7,20.496 107.841,20.2907 C 107.983,20.0853 108.131,19.9147 108.287,19.7773 C 108.444,19.6413 108.611,19.54 108.787,19.4787 C 108.963,19.4147 109.163,19.3813 109.387,19.3813 C 109.717,19.3813 110.036,19.4507 110.339,19.588 L 110.032,21.3907 C 109.895,21.1747 109.721,21.0107 109.512,20.8973 C 109.301,20.7867 109.069,20.7293 108.816,20.7293 C 108.299,20.7293 107.823,20.9453 107.393,21.3747 L 107.393,25.2573 C 107.393,26 107.531,26.6427 107.804,27.1907 L 105.46,27.1907 C 105.732,26.6427 105.871,26 105.871,25.2573 L 105.871,21.4187 C 105.871,21.0373 105.837,20.692 105.768,20.3773 C 105.699,20.0667 105.597,19.7733 105.46,19.4987 L 107.393,19.4987 Z "/>
		<path id="dp_path013" fill="#fefefe" fill-rule="evenodd" d="M 115.305,27.1467 C 114.983,27.244 114.627,27.2933 114.236,27.2933 C 113.64,27.2933 113.103,27.2013 112.624,27.0147 C 112.147,26.8293 111.739,26.5733 111.401,26.2467 C 111.064,25.9187 110.805,25.5227 110.625,25.0587 C 110.444,24.596 110.353,24.084 110.353,23.528 C 110.353,22.932 110.455,22.38 110.653,21.8733 C 110.853,21.3653 111.139,20.9253 111.512,20.5547 C 111.881,20.1827 112.325,19.8947 112.844,19.6907 C 113.361,19.484 113.937,19.3813 114.572,19.3813 C 115.032,19.3813 115.549,19.4507 116.125,19.588 L 115.995,21.3453 C 115.72,21.048 115.443,20.828 115.159,20.6827 C 114.875,20.5387 114.564,20.4653 114.221,20.4653 C 113.548,20.4653 113.009,20.7053 112.611,21.1827 C 112.208,21.66 112.009,22.3213 112.009,23.1693 C 112.009,24.1147 112.237,24.84 112.697,25.3467 C 113.157,25.8533 113.792,26.1067 114.603,26.1067 C 115.139,26.1067 115.671,25.9893 116.199,25.7547 Z "/>
		<path id="dp_path014" fill="#fefefe" fill-rule="evenodd" d="M 118.939,25.2573 C 118.939,26 119.075,26.6427 119.348,27.1907 L 117.005,27.1907 C 117.277,26.6427 117.415,26 117.415,25.2573 L 117.415,18.5187 C 117.415,17.7747 117.277,17.1307 117.005,16.5853 C 117.356,16.5053 117.724,16.428 118.112,16.3493 C 118.497,16.2707 118.896,16.1893 119.307,16.1013 C 119.188,16.4907 119.097,16.9307 119.035,17.4187 C 118.971,17.908 118.939,18.444 118.939,19.0307 L 118.939,20.76 C 119.28,20.476 119.652,20.12 120.052,19.6907 C 120.375,19.4933 120.747,19.396 121.165,19.396 C 121.477,19.396 121.775,19.4573 122.052,19.5813 C 122.329,19.7027 122.557,19.86 122.732,20.0573 C 122.939,20.2907 123.065,20.5227 123.115,20.752 C 123.161,20.9827 123.188,21.2187 123.188,21.4613 L 123.188,25.2573 C 123.188,26 123.324,26.6427 123.597,27.1907 L 121.253,27.1907 C 121.527,26.6427 121.664,26 121.664,25.2573 L 121.664,21.932 C 121.664,21.0813 121.189,20.6573 120.244,20.6573 C 119.823,20.6573 119.388,20.7893 118.939,21.052 Z "/>
		<path id="dp_path015" fill="#1f1d1f" fill-rule="evenodd" d="M 45.8053,47.0107 L 45.8053,45.796 L 44.7467,44.1227 L 45.4307,44.1227 L 46.1107,45.2653 L 46.776,44.1227 L 47.448,44.1227 L 46.3853,45.7987 L 46.3853,47.0107 Z "/>
		<path id="dp_path016" fill="#1f1d1f" fill-rule="evenodd" d="M 47.8733,45.964 C 47.8733,46.172 47.9227,46.3307 48.0213,46.4413 C 48.12,46.552 48.2413,46.6067 48.3853,46.6067 C 48.5293,46.6067 48.6507,46.552 48.7493,46.4413 C 48.8467,46.3307 48.896,46.172 48.896,45.96 C 48.896,45.756 48.8467,45.5987 48.7493,45.488 C 48.6507,45.3773 48.5293,45.3227 48.3853,45.3227 C 48.2413,45.3227 48.12,45.3773 48.0213,45.488 C 47.9227,45.5987 47.8733,45.7573 47.8733,45.964 Z M 47.3053,45.9347 C 47.3053,45.7507 47.3507,45.5733 47.4413,45.4 C 47.5333,45.2293 47.6613,45.0973 47.8267,45.0067 C 47.9933,44.9173 48.18,44.8707 48.384,44.8707 C 48.7,44.8707 48.9587,44.9747 49.1613,45.1787 C 49.364,45.3853 49.464,45.6453 49.464,45.9587 C 49.464,46.2747 49.3627,46.5373 49.1587,46.7453 C 48.9547,46.952 48.6973,47.0587 48.388,47.0587 C 48.196,47.0587 48.0133,47.0133 47.8387,46.928 C 47.6653,46.8413 47.5333,46.7147 47.4413,46.5467 C 47.3507,46.3787 47.3053,46.1747 47.3053,45.9347 Z "/>
		<path id="dp_path017" fill="#1f1d1f" fill-rule="evenodd" d="M 51.2747,47.0107 L 51.2747,46.6973 C 51.1987,46.808 51.0987,46.8973 50.9747,46.9613 C 50.8507,47.0253 50.7187,47.0587 50.5813,47.0587 C 50.4413,47.0587 50.3147,47.0267 50.2027,46.9653 C 50.092,46.9027 50.012,46.816 49.9613,46.7053 C 49.912,46.5933 49.8867,46.4387 49.8867,46.2427 L 49.8867,44.9187 L 50.44,44.9187 L 50.44,45.88 C 50.44,46.1747 50.4493,46.3533 50.4707,46.42 C 50.4907,46.4867 50.528,46.5387 50.5813,46.5787 C 50.636,46.6173 50.704,46.636 50.7853,46.636 C 50.8813,46.636 50.9653,46.6093 51.04,46.5587 C 51.1147,46.5067 51.1667,46.4427 51.1947,46.3653 C 51.2213,46.2893 51.236,46.1 51.236,45.8 L 51.236,44.9187 L 51.788,44.9187 L 51.788,47.0107 Z "/>
		<path id="dp_path018" fill="#1f1d1f" fill-rule="evenodd" d="M 52.8907,47.0107 L 52.3387,47.0107 L 52.3387,44.9187 L 52.852,44.9187 L 52.852,45.216 C 52.94,45.076 53.02,44.9827 53.0893,44.9387 C 53.16,44.8947 53.24,44.8707 53.328,44.8707 C 53.4547,44.8707 53.576,44.9053 53.6933,44.9747 L 53.5213,45.4573 C 53.4293,45.3987 53.3427,45.368 53.2627,45.368 C 53.184,45.368 53.1187,45.3893 53.0653,45.432 C 53.0107,45.4747 52.9693,45.552 52.9373,45.6627 C 52.9067,45.7747 52.8907,46.0093 52.8907,46.3653 Z "/>
		<path id="dp_path019" fill="#1f1d1f" fill-rule="evenodd" d="M 55.064,47.0107 L 55.064,44.1227 L 55.6467,44.1227 L 55.6467,45.4053 L 56.8253,44.1227 L 57.6093,44.1227 L 56.5213,45.248 L 57.668,47.0107 L 56.9133,47.0107 L 56.12,45.6547 L 55.6467,46.1373 L 55.6467,47.0107 Z "/>
		<path id="dp_path020" fill="#1f1d1f" fill-rule="evenodd" d="M 59.868,47.0107 L 59.3147,47.0107 L 59.3147,45.944 C 59.3147,45.7173 59.3027,45.5707 59.2787,45.504 C 59.256,45.4387 59.2173,45.3867 59.164,45.3493 C 59.1107,45.3133 59.0467,45.2947 58.972,45.2947 C 58.876,45.2947 58.7893,45.32 58.7147,45.3733 C 58.6373,45.4267 58.5853,45.496 58.5573,45.5827 C 58.5293,45.6693 58.5147,45.8293 58.5147,46.0613 L 58.5147,47.0107 L 57.9613,47.0107 L 57.9613,44.9187 L 58.476,44.9187 L 58.476,45.2253 C 58.6587,44.9893 58.8867,44.8707 59.164,44.8707 C 59.2867,44.8707 59.3987,44.8933 59.4987,44.936 C 59.6013,44.9813 59.6773,45.0373 59.7293,45.1053 C 59.7813,45.1733 59.8173,45.252 59.8373,45.3373 C 59.8573,45.4253 59.868,45.548 59.868,45.7093 Z "/>
		<path id="dp_path021" fill="#1f1d1f" fill-rule="evenodd" d="M 60.868,45.964 C 60.868,46.172 60.9173,46.3307 61.016,46.4413 C 61.1147,46.552 61.236,46.6067 61.3813,46.6067 C 61.5253,46.6067 61.6467,46.552 61.744,46.4413 C 61.8413,46.3307 61.8907,46.172 61.8907,45.96 C 61.8907,45.756 61.8413,45.5987 61.744,45.488 C 61.6467,45.3773 61.5253,45.3227 61.3813,45.3227 C 61.236,45.3227 61.1147,45.3773 61.016,45.488 C 60.9173,45.5987 60.868,45.7573 60.868,45.964 Z M 60.3013,45.9347 C 60.3013,45.7507 60.3467,45.5733 60.4373,45.4 C 60.528,45.2293 60.656,45.0973 60.8227,45.0067 C 60.988,44.9173 61.1733,44.8707 61.3787,44.8707 C 61.6947,44.8707 61.9547,44.9747 62.1573,45.1787 C 62.3587,45.3853 62.46,45.6453 62.46,45.9587 C 62.46,46.2747 62.3587,46.5373 62.1533,46.7453 C 61.9493,46.952 61.6933,47.0587 61.3827,47.0587 C 61.1907,47.0587 61.008,47.0133 60.8333,46.928 C 60.66,46.8413 60.528,46.7147 60.4373,46.5467 C 60.3467,46.3787 60.3013,46.1747 60.3013,45.9347 Z "/>
		<path id="dp_path022" fill="#1f1d1f" fill-rule="evenodd" d="M 63.2827,47.0107 L 62.6213,44.9187 L 63.1587,44.9187 L 63.552,46.2893 L 63.912,44.9187 L 64.4453,44.9187 L 64.7947,46.2893 L 65.1947,44.9187 L 65.7387,44.9187 L 65.0667,47.0107 L 64.536,47.0107 L 64.176,45.6653 L 63.82,47.0107 Z "/>
		<path id="dp_path023" fill="#1f1d1f" fill-rule="evenodd" d="M 66.0307,47.0107 L 66.0307,44.1227 L 66.584,44.1227 L 66.584,47.0107 Z "/>
		<path id="dp_path024" fill="#1f1d1f" fill-rule="evenodd" d="M 68.3933,45.7853 C 68.3893,45.624 68.348,45.5027 68.2693,45.42 C 68.1907,45.336 68.096,45.2947 67.9827,45.2947 C 67.86,45.2947 67.7613,45.3387 67.6813,45.4267 C 67.604,45.5147 67.5653,45.6333 67.5667,45.7853 Z M 68.3627,46.344 L 68.9133,46.4373 C 68.8427,46.64 68.7307,46.7933 68.5787,46.8987 C 68.424,47.004 68.2333,47.0587 68.004,47.0587 C 67.64,47.0587 67.3693,46.9387 67.196,46.7013 C 67.0587,46.5107 66.9893,46.2707 66.9893,45.98 C 66.9893,45.6333 67.0813,45.3627 67.2613,45.1667 C 67.4427,44.9693 67.672,44.8707 67.948,44.8707 C 68.26,44.8707 68.5053,44.9747 68.6853,45.1787 C 68.8653,45.3853 68.9507,45.7 68.944,46.1227 L 67.5573,46.1227 C 67.56,46.2893 67.6053,46.416 67.6907,46.5067 C 67.776,46.5987 67.8827,46.644 68.0093,46.644 C 68.096,46.644 68.1693,46.6213 68.228,46.572 C 68.2867,46.5253 68.332,46.4493 68.3627,46.344 Z "/>
		<path id="dp_path025" fill="#1f1d1f" fill-rule="evenodd" d="M 69.8347,45.9187 C 69.8347,46.1427 69.8667,46.304 69.928,46.404 C 70.0173,46.548 70.1413,46.6213 70.3013,46.6213 C 70.4293,46.6213 70.5373,46.5667 70.6267,46.4587 C 70.716,46.3507 70.7613,46.188 70.7613,45.972 C 70.7613,45.732 70.7173,45.5587 70.6307,45.4533 C 70.544,45.3467 70.4333,45.2947 70.2973,45.2947 C 70.1667,45.2947 70.0573,45.3467 69.968,45.4507 C 69.88,45.556 69.8347,45.712 69.8347,45.9187 Z M 71.312,47.0107 L 70.7987,47.0107 L 70.7987,46.7027 C 70.712,46.8227 70.612,46.912 70.496,46.9707 C 70.38,47.028 70.2627,47.0587 70.144,47.0587 C 69.9027,47.0587 69.6973,46.9613 69.5267,46.7667 C 69.3547,46.5733 69.2707,46.304 69.2707,45.956 C 69.2707,45.6013 69.3533,45.332 69.52,45.148 C 69.6867,44.9627 69.8973,44.8707 70.152,44.8707 C 70.3853,44.8707 70.588,44.968 70.7587,45.164 L 70.7587,44.1227 L 71.312,44.1227 Z "/>
		<path id="dp_path026" fill="#1f1d1f" fill-rule="evenodd" d="M 72.3013,45.9213 C 72.3013,46.1427 72.344,46.3053 72.4293,46.408 C 72.516,46.5107 72.6213,46.564 72.748,46.564 C 72.884,46.564 72.9973,46.5107 73.0907,46.404 C 73.184,46.2987 73.2307,46.1427 73.2307,45.9347 C 73.2307,45.7187 73.1853,45.5573 73.096,45.452 C 73.0067,45.3467 72.8947,45.2947 72.7573,45.2947 C 72.6253,45.2947 72.516,45.3467 72.4293,45.4493 C 72.344,45.552 72.3013,45.7093 72.3013,45.9213 Z M 71.8067,47.148 L 72.4387,47.2253 C 72.4493,47.2973 72.4733,47.348 72.5107,47.3773 C 72.564,47.416 72.6467,47.436 72.76,47.436 C 72.9053,47.436 73.012,47.4147 73.0853,47.3707 C 73.1333,47.3413 73.1707,47.2947 73.1947,47.2307 C 73.212,47.1853 73.22,47.1 73.22,46.9773 L 73.22,46.672 C 73.0547,46.8987 72.8467,47.0107 72.5947,47.0107 C 72.3133,47.0107 72.0907,46.8907 71.9253,46.6547 C 71.7987,46.4653 71.7333,46.2333 71.7333,45.9533 C 71.7333,45.6013 71.8187,45.3333 71.9867,45.1493 C 72.156,44.964 72.3653,44.8707 72.616,44.8707 C 72.8747,44.8707 73.088,44.9853 73.256,45.2133 L 73.256,44.9187 L 73.7733,44.9187 L 73.7733,46.796 C 73.7733,47.0427 73.7547,47.2267 73.712,47.348 C 73.672,47.4707 73.6147,47.568 73.5427,47.636 C 73.468,47.7067 73.3707,47.76 73.2467,47.8 C 73.124,47.84 72.9693,47.86 72.78,47.86 C 72.4267,47.86 72.176,47.7987 72.0267,47.6773 C 71.8787,47.556 71.804,47.4013 71.804,47.2147 C 71.804,47.1973 71.8053,47.1733 71.8067,47.148 Z "/>
		<path id="dp_path027" fill="#1f1d1f" fill-rule="evenodd" d="M 75.564,45.7853 C 75.56,45.624 75.5187,45.5027 75.44,45.42 C 75.3613,45.336 75.2667,45.2947 75.152,45.2947 C 75.032,45.2947 74.9333,45.3387 74.8533,45.4267 C 74.776,45.5147 74.736,45.6333 74.736,45.7853 Z M 75.5333,46.344 L 76.084,46.4373 C 76.0133,46.64 75.9013,46.7933 75.748,46.8987 C 75.5947,47.004 75.404,47.0587 75.1747,47.0587 C 74.8107,47.0587 74.5413,46.9387 74.3667,46.7013 C 74.2293,46.5107 74.1613,46.2707 74.1613,45.98 C 74.1613,45.6333 74.2507,45.3627 74.4307,45.1667 C 74.6133,44.9693 74.8413,44.8707 75.1187,44.8707 C 75.4307,44.8707 75.676,44.9747 75.8573,45.1787 C 76.036,45.3853 76.1213,45.7 76.1147,46.1227 L 74.728,46.1227 C 74.7307,46.2893 74.776,46.416 74.8613,46.5067 C 74.9467,46.5987 75.0533,46.644 75.18,46.644 C 75.2667,46.644 75.34,46.6213 75.3987,46.572 C 75.4573,46.5253 75.5027,46.4493 75.5333,46.344 Z "/>
		<path id="dp_path028" fill="#1f1d1f" fill-rule="evenodd" d="M 78.2707,44.612 L 78.2707,45.4307 L 78.5907,45.4307 C 78.8213,45.4307 78.9747,45.416 79.052,45.3853 C 79.1293,45.3547 79.1907,45.308 79.2333,45.244 C 79.2787,45.1787 79.3,45.1053 79.3,45.0187 C 79.3,44.9133 79.268,44.828 79.2067,44.76 C 79.1453,44.6907 79.068,44.648 78.972,44.6307 C 78.9027,44.6173 78.764,44.612 78.5533,44.612 Z M 77.688,47.0107 L 77.688,44.1227 L 78.624,44.1227 C 78.9787,44.1227 79.2093,44.1373 79.3173,44.1653 C 79.484,44.2093 79.6213,44.304 79.7333,44.4493 C 79.8453,44.5933 79.9,44.7813 79.9,45.012 C 79.9,45.188 79.868,45.3373 79.804,45.4573 C 79.7387,45.5787 79.6587,45.6747 79.5587,45.744 C 79.4587,45.812 79.3587,45.8573 79.256,45.88 C 79.1173,45.9067 78.916,45.9213 78.652,45.9213 L 78.2707,45.9213 L 78.2707,47.0107 Z "/>
		<path id="dp_path029" fill="#1f1d1f" fill-rule="evenodd" d="M 81.5293,46.0053 C 81.4573,46.0293 81.348,46.0573 81.1933,46.0907 C 81.04,46.1227 80.9387,46.156 80.8907,46.1867 C 80.8187,46.2373 80.7813,46.304 80.7813,46.3813 C 80.7813,46.4587 80.8107,46.5267 80.8693,46.5827 C 80.928,46.64 81.0013,46.668 81.0907,46.668 C 81.1907,46.668 81.2867,46.6347 81.376,46.5693 C 81.4427,46.52 81.4867,46.4587 81.5067,46.3853 C 81.5227,46.3387 81.5293,46.248 81.5293,46.1147 Z M 80.788,45.556 L 80.2867,45.4667 C 80.3427,45.264 80.44,45.1147 80.5773,45.0173 C 80.716,44.92 80.9213,44.8707 81.1933,44.8707 C 81.4387,44.8707 81.624,44.9013 81.744,44.9587 C 81.864,45.0173 81.9493,45.092 81.9987,45.18 C 82.048,45.2707 82.0733,45.4373 82.0733,45.6773 L 82.068,46.3227 C 82.068,46.5067 82.076,46.6413 82.0933,46.7293 C 82.112,46.816 82.1453,46.9107 82.1933,47.0107 L 81.6467,47.0107 C 81.632,46.9733 81.6133,46.9187 81.592,46.8467 C 81.5827,46.8133 81.576,46.792 81.572,46.78 C 81.4787,46.8747 81.3773,46.9427 81.2693,46.988 C 81.1627,47.0347 81.0467,47.0587 80.9253,47.0587 C 80.7093,47.0587 80.5387,47 80.416,46.8813 C 80.292,46.7653 80.2293,46.6173 80.2293,46.4387 C 80.2293,46.32 80.2573,46.2147 80.3147,46.1227 C 80.3707,46.0307 80.4507,45.9587 80.552,45.9093 C 80.6533,45.86 80.8,45.8173 80.9907,45.7813 C 81.2507,45.732 81.4307,45.688 81.5293,45.6453 L 81.5293,45.5907 C 81.5293,45.484 81.5027,45.408 81.4507,45.3627 C 81.3973,45.3173 81.2973,45.2947 81.1533,45.2947 C 81.0547,45.2947 80.9787,45.3147 80.9227,45.352 C 80.868,45.392 80.8227,45.46 80.788,45.556 Z "/>
		<path id="dp_path030" fill="#1f1d1f" fill-rule="evenodd" d="M 83.148,47.0107 L 82.5947,47.0107 L 82.5947,44.9187 L 83.1093,44.9187 L 83.1093,45.216 C 83.196,45.076 83.2747,44.9827 83.3453,44.9387 C 83.416,44.8947 83.496,44.8707 83.5853,44.8707 C 83.712,44.8707 83.8333,44.9053 83.9507,44.9747 L 83.7787,45.4573 C 83.6853,45.3987 83.5987,45.368 83.5187,45.368 C 83.4413,45.368 83.3747,45.3893 83.3213,45.432 C 83.268,45.4747 83.2253,45.552 83.1947,45.6627 C 83.164,45.7747 83.148,46.0093 83.148,46.3653 Z "/>
		<path id="dp_path031" fill="#1f1d1f" fill-rule="evenodd" d="M 85.148,44.9187 L 85.148,45.3587 L 84.7693,45.3587 L 84.7693,46.2027 C 84.7693,46.3733 84.7733,46.472 84.7813,46.5013 C 84.788,46.5293 84.804,46.552 84.8307,46.572 C 84.856,46.5907 84.888,46.5987 84.9227,46.5987 C 84.9747,46.5987 85.048,46.58 85.1453,46.5453 L 85.1933,46.9747 C 85.0653,47.0307 84.9187,47.0587 84.7547,47.0587 C 84.656,47.0587 84.564,47.04 84.4867,47.0067 C 84.4067,46.9747 84.3467,46.9307 84.3093,46.8773 C 84.272,46.8253 84.2467,46.752 84.232,46.6627 C 84.2213,46.5987 84.2147,46.468 84.2147,46.2707 L 84.2147,45.3587 L 83.96,45.3587 L 83.96,44.9187 L 84.2147,44.9187 L 84.2147,44.5027 L 84.7693,44.18 L 84.7693,44.9187 Z "/>
		<path id="dp_path032" fill="#1f1d1f" fill-rule="evenodd" d="M 87.4347,47.0107 L 86.88,47.0107 L 86.88,45.944 C 86.88,45.7173 86.8693,45.5707 86.8453,45.504 C 86.8213,45.4387 86.7827,45.3867 86.7307,45.3493 C 86.6773,45.3133 86.6133,45.2947 86.5387,45.2947 C 86.4427,45.2947 86.3573,45.32 86.28,45.3733 C 86.204,45.4267 86.152,45.496 86.1227,45.5827 C 86.096,45.6693 86.0813,45.8293 86.0813,46.0613 L 86.0813,47.0107 L 85.5267,47.0107 L 85.5267,44.9187 L 86.0413,44.9187 L 86.0413,45.2253 C 86.224,44.9893 86.4533,44.8707 86.732,44.8707 C 86.8533,44.8707 86.9653,44.8933 87.0667,44.936 C 87.168,44.9813 87.244,45.0373 87.2947,45.1053 C 87.348,45.1733 87.384,45.252 87.404,45.3373 C 87.424,45.4253 87.4347,45.548 87.4347,45.7093 Z "/>
		<path id="dp_path033" fill="#1f1d1f" fill-rule="evenodd" d="M 89.2373,45.7853 C 89.2333,45.624 89.1933,45.5027 89.116,45.42 C 89.036,45.336 88.94,45.2947 88.8267,45.2947 C 88.7053,45.2947 88.6067,45.3387 88.5267,45.4267 C 88.4493,45.5147 88.4093,45.6333 88.4107,45.7853 Z M 89.2067,46.344 L 89.7587,46.4373 C 89.6893,46.64 89.576,46.7933 89.4227,46.8987 C 89.2693,47.004 89.0787,47.0587 88.8493,47.0587 C 88.4853,47.0587 88.2147,46.9387 88.0427,46.7013 C 87.9027,46.5107 87.8347,46.2707 87.8347,45.98 C 87.8347,45.6333 87.9253,45.3627 88.1053,45.1667 C 88.2867,44.9693 88.516,44.8707 88.7933,44.8707 C 89.104,44.8707 89.3507,44.9747 89.5307,45.1787 C 89.7093,45.3853 89.796,45.7 89.788,46.1227 L 88.4013,46.1227 C 88.404,46.2893 88.4507,46.416 88.5347,46.5067 C 88.62,46.5987 88.728,46.644 88.8547,46.644 C 88.9413,46.644 89.0147,46.6213 89.0733,46.572 C 89.1307,46.5253 89.176,46.4493 89.2067,46.344 Z "/>
		<path id="dp_path034" fill="#1f1d1f" fill-rule="evenodd" d="M 90.768,47.0107 L 90.2147,47.0107 L 90.2147,44.9187 L 90.7293,44.9187 L 90.7293,45.216 C 90.816,45.076 90.8947,44.9827 90.9653,44.9387 C 91.036,44.8947 91.116,44.8707 91.2067,44.8707 C 91.332,44.8707 91.4533,44.9053 91.5707,44.9747 L 91.3987,45.4573 C 91.3053,45.3987 91.2187,45.368 91.1387,45.368 C 91.0613,45.368 90.9947,45.3893 90.9413,45.432 C 90.888,45.4747 90.8453,45.552 90.8147,45.6627 C 90.784,45.7747 90.768,46.0093 90.768,46.3653 Z "/>
		<path id="dp_path035" fill="#1f1d1f" fill-rule="evenodd" d="M 92.9373,47.0107 L 92.9373,44.1227 L 94.916,44.1227 L 94.916,44.612 L 93.52,44.612 L 93.52,45.2947 L 94.7267,45.2947 L 94.7267,45.784 L 93.52,45.784 L 93.52,47.0107 Z "/>
		<path id="dp_path036" fill="#1f1d1f" fill-rule="evenodd" d="M 95.8333,45.964 C 95.8333,46.172 95.88,46.3307 95.9787,46.4413 C 96.0773,46.552 96.2,46.6067 96.344,46.6067 C 96.488,46.6067 96.6093,46.552 96.708,46.4413 C 96.8053,46.3307 96.8533,46.172 96.8533,45.96 C 96.8533,45.756 96.8053,45.5987 96.708,45.488 C 96.6093,45.3773 96.488,45.3227 96.344,45.3227 C 96.2,45.3227 96.0773,45.3773 95.9787,45.488 C 95.88,45.5987 95.8333,45.7573 95.8333,45.964 Z M 95.2653,45.9347 C 95.2653,45.7507 95.3093,45.5733 95.4013,45.4 C 95.4907,45.2293 95.6187,45.0973 95.7853,45.0067 C 95.952,44.9173 96.1373,44.8707 96.3427,44.8707 C 96.6573,44.8707 96.9173,44.9747 97.12,45.1787 C 97.3213,45.3853 97.424,45.6453 97.424,45.9587 C 97.424,46.2747 97.3213,46.5373 97.116,46.7453 C 96.9147,46.952 96.656,47.0587 96.3467,47.0587 C 96.1547,47.0587 95.9707,47.0133 95.7973,46.928 C 95.624,46.8413 95.4907,46.7147 95.4013,46.5467 C 95.3093,46.3787 95.2653,46.1747 95.2653,45.9347 Z "/>
		<path id="dp_path037" fill="#1f1d1f" fill-rule="evenodd" d="M 98.3867,47.0107 L 97.8333,47.0107 L 97.8333,44.9187 L 98.348,44.9187 L 98.348,45.216 C 98.4347,45.076 98.5147,44.9827 98.584,44.9387 C 98.6547,44.8947 98.7347,44.8707 98.824,44.8707 C 98.948,44.8707 99.0707,44.9053 99.188,44.9747 L 99.0173,45.4573 C 98.9227,45.3987 98.8373,45.368 98.756,45.368 C 98.6787,45.368 98.6133,45.3893 98.56,45.432 C 98.5053,45.4747 98.4627,45.552 98.432,45.6627 C 98.4013,45.7747 98.3867,46.0093 98.3867,46.3653 Z "/>
		<path id="dp_path038" fill="#1f1d1f" fill-rule="evenodd" d="M 101.033,45.564 C 101.033,45.892 101.108,46.14 101.26,46.3093 C 101.411,46.4773 101.604,46.5613 101.835,46.5613 C 102.067,46.5613 102.26,46.4773 102.408,46.3107 C 102.557,46.1427 102.631,45.892 102.631,45.556 C 102.631,45.2253 102.559,44.9787 102.413,44.816 C 102.268,44.6533 102.076,44.5707 101.835,44.5707 C 101.595,44.5707 101.401,44.6547 101.255,44.8187 C 101.107,44.9853 101.033,45.232 101.033,45.564 Z M 100.435,45.584 C 100.435,45.2907 100.477,45.044 100.564,44.844 C 100.631,44.6973 100.72,44.564 100.835,44.448 C 100.948,44.3307 101.072,44.244 101.207,44.188 C 101.388,44.1107 101.595,44.0733 101.831,44.0733 C 102.255,44.0733 102.595,44.2053 102.851,44.468 C 103.107,44.7333 103.233,45.1 103.233,45.5707 C 103.233,46.036 103.108,46.4 102.853,46.6653 C 102.6,46.928 102.261,47.06 101.837,47.06 C 101.408,47.06 101.067,46.9293 100.812,46.6667 C 100.56,46.404 100.435,46.0427 100.435,45.584 Z "/>
		<path id="dp_path039" fill="#1f1d1f" fill-rule="evenodd" d="M 103.684,47.0107 L 103.684,44.9187 L 104.239,44.9187 L 104.239,47.0107 Z M 103.684,44.636 L 103.684,44.1227 L 104.239,44.1227 L 104.239,44.636 Z "/>
		<path id="dp_path040" fill="#1f1d1f" fill-rule="evenodd" d="M 104.804,47.0107 L 104.804,44.1227 L 105.359,44.1227 L 105.359,47.0107 Z "/>
		<path id="dp_path041" fill="#1f1d1f" fill-rule="evenodd" d="M 105.731,46.4147 L 106.285,46.328 C 106.309,46.436 106.357,46.5187 106.431,46.5733 C 106.503,46.6293 106.603,46.6587 106.733,46.6587 C 106.876,46.6587 106.984,46.632 107.055,46.5787 C 107.104,46.5427 107.129,46.4933 107.129,46.4307 C 107.129,46.3893 107.116,46.3547 107.089,46.3267 C 107.063,46.3013 107.001,46.276 106.904,46.2547 C 106.459,46.156 106.175,46.0653 106.056,45.984 C 105.891,45.8707 105.808,45.7147 105.808,45.5147 C 105.808,45.332 105.879,45.18 106.021,45.056 C 106.165,44.9333 106.387,44.8707 106.688,44.8707 C 106.975,44.8707 107.188,44.9173 107.325,45.012 C 107.465,45.1053 107.561,45.2413 107.615,45.4253 L 107.093,45.5213 C 107.071,45.44 107.027,45.3773 106.964,45.3333 C 106.903,45.2907 106.812,45.2693 106.697,45.2693 C 106.552,45.2693 106.447,45.2893 106.383,45.3307 C 106.343,45.3587 106.321,45.396 106.321,45.4427 C 106.321,45.4813 106.34,45.516 106.377,45.5427 C 106.427,45.5787 106.599,45.632 106.893,45.6973 C 107.188,45.7653 107.393,45.848 107.512,45.944 C 107.627,46.0427 107.684,46.18 107.684,46.3573 C 107.684,46.548 107.603,46.712 107.444,46.8507 C 107.283,46.988 107.047,47.0587 106.733,47.0587 C 106.448,47.0587 106.223,47.0013 106.056,46.884 C 105.891,46.7693 105.781,46.612 105.731,46.4147 Z "/>
		<path id="dp_path042" fill="#1f1d1f" fill-rule="evenodd" d="M 110.341,45.088 L 110.492,44.9733 C 110.601,44.8867 110.657,44.804 110.657,44.72 C 110.657,44.6493 110.629,44.588 110.577,44.5387 C 110.523,44.488 110.452,44.464 110.361,44.464 C 110.273,44.464 110.204,44.4853 110.155,44.5293 C 110.104,44.5747 110.079,44.6253 110.079,44.6813 C 110.079,44.7507 110.121,44.8333 110.207,44.9293 Z M 110.124,45.6893 C 109.997,45.7533 109.903,45.8307 109.839,45.9213 C 109.776,46.012 109.745,46.104 109.745,46.1987 C 109.745,46.3187 109.783,46.416 109.861,46.492 C 109.941,46.5667 110.044,46.6053 110.176,46.6053 C 110.263,46.6053 110.347,46.588 110.427,46.5533 C 110.507,46.52 110.593,46.4627 110.688,46.384 Z M 111.848,46.6587 L 111.512,47.0853 C 111.351,47.0053 111.192,46.8947 111.04,46.7533 C 110.924,46.86 110.8,46.9373 110.669,46.9867 C 110.537,47.036 110.38,47.0613 110.2,47.0613 C 109.839,47.0613 109.569,46.9587 109.388,46.7587 C 109.248,46.6013 109.177,46.4213 109.177,46.2187 C 109.177,46.0333 109.232,45.8667 109.344,45.7187 C 109.453,45.572 109.617,45.4427 109.837,45.3333 C 109.74,45.2173 109.665,45.1053 109.615,45 C 109.564,44.8947 109.541,44.7947 109.541,44.7 C 109.541,44.5253 109.611,44.3773 109.749,44.256 C 109.891,44.1347 110.089,44.0733 110.348,44.0733 C 110.596,44.0733 110.793,44.1373 110.933,44.264 C 111.073,44.392 111.143,44.548 111.143,44.7307 C 111.143,44.8493 111.108,44.9587 111.039,45.0653 C 110.969,45.168 110.828,45.2893 110.617,45.42 L 111.02,45.952 C 111.067,45.8667 111.107,45.7573 111.141,45.6213 L 111.641,45.736 C 111.592,45.9133 111.548,46.0427 111.512,46.1253 C 111.475,46.2067 111.435,46.2747 111.393,46.3307 C 111.455,46.3893 111.536,46.452 111.633,46.52 C 111.731,46.5907 111.803,46.636 111.848,46.6587 Z "/>
		<path id="dp_path043" fill="#1f1d1f" fill-rule="evenodd" d="M 113.811,45.564 C 113.811,45.892 113.885,46.14 114.037,46.3093 C 114.188,46.4773 114.379,46.5613 114.611,46.5613 C 114.844,46.5613 115.035,46.4773 115.184,46.3107 C 115.333,46.1427 115.408,45.892 115.408,45.556 C 115.408,45.2253 115.336,44.9787 115.189,44.816 C 115.045,44.6533 114.852,44.5707 114.611,44.5707 C 114.371,44.5707 114.177,44.6547 114.032,44.8187 C 113.884,44.9853 113.811,45.232 113.811,45.564 Z M 113.211,45.584 C 113.211,45.2907 113.253,45.044 113.341,44.844 C 113.405,44.6973 113.497,44.564 113.611,44.448 C 113.724,44.3307 113.849,44.244 113.984,44.188 C 114.164,44.1107 114.371,44.0733 114.607,44.0733 C 115.032,44.0733 115.371,44.2053 115.627,44.468 C 115.883,44.7333 116.009,45.1 116.009,45.5707 C 116.009,46.036 115.884,46.4 115.631,46.6653 C 115.377,46.928 115.039,47.06 114.615,47.06 C 114.184,47.06 113.844,46.9293 113.589,46.6667 C 113.337,46.404 113.211,46.0427 113.211,45.584 Z "/>
		<path id="dp_path044" fill="#1f1d1f" fill-rule="evenodd" d="M 116.461,47.0107 L 116.461,44.9187 L 117.015,44.9187 L 117.015,47.0107 Z M 116.461,44.636 L 116.461,44.1227 L 117.015,44.1227 L 117.015,44.636 Z "/>
		<path id="dp_path045" fill="#1f1d1f" fill-rule="evenodd" d="M 117.581,47.0107 L 117.581,44.1227 L 118.136,44.1227 L 118.136,47.0107 Z "/>
		<path id="dp_path046" fill="#1f1d1f" fill-rule="evenodd" d="M 118.507,46.4147 L 119.063,46.328 C 119.085,46.436 119.135,46.5187 119.208,46.5733 C 119.279,46.6293 119.379,46.6587 119.511,46.6587 C 119.652,46.6587 119.761,46.632 119.832,46.5787 C 119.881,46.5427 119.905,46.4933 119.905,46.4307 C 119.905,46.3893 119.892,46.3547 119.865,46.3267 C 119.839,46.3013 119.777,46.276 119.68,46.2547 C 119.235,46.156 118.952,46.0653 118.832,45.984 C 118.667,45.8707 118.584,45.7147 118.584,45.5147 C 118.584,45.332 118.656,45.18 118.799,45.056 C 118.941,44.9333 119.164,44.8707 119.465,44.8707 C 119.751,44.8707 119.964,44.9173 120.103,45.012 C 120.241,45.1053 120.337,45.2413 120.391,45.4253 L 119.868,45.5213 C 119.847,45.44 119.803,45.3773 119.74,45.3333 C 119.679,45.2907 119.588,45.2693 119.473,45.2693 C 119.328,45.2693 119.224,45.2893 119.161,45.3307 C 119.119,45.3587 119.097,45.396 119.097,45.4427 C 119.097,45.4813 119.116,45.516 119.155,45.5427 C 119.203,45.5787 119.375,45.632 119.672,45.6973 C 119.964,45.7653 120.171,45.848 120.288,45.944 C 120.404,46.0427 120.46,46.18 120.46,46.3573 C 120.46,46.548 120.38,46.712 120.22,46.8507 C 120.06,46.988 119.824,47.0587 119.511,47.0587 C 119.225,47.0587 118.999,47.0013 118.835,46.884 C 118.667,46.7693 118.559,46.612 118.507,46.4147 Z "/>
		<path id="dp_path047" fill="#1f1d1f" fill-rule="evenodd" d="M 122.188,45.7853 C 122.185,45.624 122.143,45.5027 122.065,45.42 C 121.987,45.336 121.891,45.2947 121.777,45.2947 C 121.656,45.2947 121.557,45.3387 121.477,45.4267 C 121.399,45.5147 121.36,45.6333 121.361,45.7853 Z M 122.157,46.344 L 122.708,46.4373 C 122.637,46.64 122.527,46.7933 122.373,46.8987 C 122.22,47.004 122.029,47.0587 121.8,47.0587 C 121.436,47.0587 121.165,46.9387 120.992,46.7013 C 120.853,46.5107 120.785,46.2707 120.785,45.98 C 120.785,45.6333 120.876,45.3627 121.056,45.1667 C 121.237,44.9693 121.467,44.8707 121.744,44.8707 C 122.056,44.8707 122.3,44.9747 122.481,45.1787 C 122.66,45.3853 122.745,45.7 122.739,46.1227 L 121.352,46.1227 C 121.356,46.2893 121.4,46.416 121.485,46.5067 C 121.571,46.5987 121.677,46.644 121.805,46.644 C 121.892,46.644 121.964,46.6213 122.023,46.572 C 122.083,46.5253 122.128,46.4493 122.157,46.344 Z "/>
		<path id="dp_path048" fill="#1f1d1f" fill-rule="evenodd" d="M 124.432,45.7853 C 124.428,45.624 124.387,45.5027 124.308,45.42 C 124.229,45.336 124.133,45.2947 124.02,45.2947 C 123.9,45.2947 123.8,45.3387 123.721,45.4267 C 123.641,45.5147 123.603,45.6333 123.604,45.7853 Z M 124.4,46.344 L 124.952,46.4373 C 124.881,46.64 124.769,46.7933 124.616,46.8987 C 124.463,47.004 124.272,47.0587 124.041,47.0587 C 123.679,47.0587 123.408,46.9387 123.235,46.7013 C 123.097,46.5107 123.028,46.2707 123.028,45.98 C 123.028,45.6333 123.119,45.3627 123.299,45.1667 C 123.481,44.9693 123.709,44.8707 123.987,44.8707 C 124.297,44.8707 124.543,44.9747 124.724,45.1787 C 124.904,45.3853 124.988,45.7 124.981,46.1227 L 123.596,46.1227 C 123.599,46.2893 123.644,46.416 123.728,46.5067 C 123.815,46.5987 123.92,46.644 124.048,46.644 C 124.135,46.644 124.208,46.6213 124.267,46.572 C 124.325,46.5253 124.371,46.4493 124.4,46.344 Z "/>
		<path id="dp_path049" fill="#1f1d1f" fill-rule="evenodd" d="M 125.873,45.9187 C 125.873,46.1427 125.904,46.304 125.965,46.404 C 126.055,46.548 126.18,46.6213 126.34,46.6213 C 126.468,46.6213 126.576,46.5667 126.665,46.4587 C 126.755,46.3507 126.799,46.188 126.799,45.972 C 126.799,45.732 126.755,45.5587 126.668,45.4533 C 126.581,45.3467 126.472,45.2947 126.337,45.2947 C 126.204,45.2947 126.095,45.3467 126.007,45.4507 C 125.919,45.556 125.873,45.712 125.873,45.9187 Z M 127.349,47.0107 L 126.836,47.0107 L 126.836,46.7027 C 126.751,46.8227 126.651,46.912 126.535,46.9707 C 126.417,47.028 126.301,47.0587 126.183,47.0587 C 125.941,47.0587 125.736,46.9613 125.565,46.7667 C 125.393,46.5733 125.308,46.304 125.308,45.956 C 125.308,45.6013 125.391,45.332 125.557,45.148 C 125.725,44.9627 125.935,44.8707 126.191,44.8707 C 126.424,44.8707 126.625,44.968 126.797,45.164 L 126.797,44.1227 L 127.349,44.1227 Z "/>
		<path id="dp_path050" fill="#1f1d1f" fill-rule="evenodd" d="M 127.7,46.4147 L 128.256,46.328 C 128.28,46.436 128.328,46.5187 128.4,46.5733 C 128.472,46.6293 128.573,46.6587 128.703,46.6587 C 128.847,46.6587 128.953,46.632 129.025,46.5787 C 129.075,46.5427 129.099,46.4933 129.099,46.4307 C 129.099,46.3893 129.087,46.3547 129.06,46.3267 C 129.032,46.3013 128.971,46.276 128.873,46.2547 C 128.428,46.156 128.145,46.0653 128.025,45.984 C 127.86,45.8707 127.779,45.7147 127.779,45.5147 C 127.779,45.332 127.849,45.18 127.992,45.056 C 128.136,44.9333 128.356,44.8707 128.657,44.8707 C 128.945,44.8707 129.159,44.9173 129.295,45.012 C 129.436,45.1053 129.531,45.2413 129.584,45.4253 L 129.063,45.5213 C 129.039,45.44 128.996,45.3773 128.935,45.3333 C 128.872,45.2907 128.783,45.2693 128.668,45.2693 C 128.523,45.2693 128.417,45.2893 128.355,45.3307 C 128.313,45.3587 128.292,45.396 128.292,45.4427 C 128.292,45.4813 128.311,45.516 128.348,45.5427 C 128.397,45.5787 128.569,45.632 128.864,45.6973 C 129.159,45.7653 129.364,45.848 129.481,45.944 C 129.597,46.0427 129.655,46.18 129.655,46.3573 C 129.655,46.548 129.575,46.712 129.415,46.8507 C 129.253,46.988 129.017,47.0587 128.703,47.0587 C 128.419,47.0587 128.192,47.0013 128.027,46.884 C 127.86,46.7693 127.752,46.612 127.7,46.4147 Z "/>
		<path id="dp_path051" fill="url(#grad_dp_001)" fill-rule="evenodd" d="M 161.704,13.0053 L 158.543,16.1667 L 164.563,22.1867 L 158.532,28.2173 L 161.704,31.3893 L 170.896,22.1973 Z "/>
		<path id="dp_path052" fill="#2b6a41" fill-rule="evenodd" d="M 174.884,22.1973 L 165.692,13.0053 L 161.704,13.0053 L 170.896,22.1973 L 161.704,31.3893 L 165.692,31.3893 Z "/>
		<path id="dp_path053" fill="url(#grad_dp_002)" fill-rule="evenodd" d="M 189.749,13.0053 L 192.911,16.1667 L 186.891,22.1867 L 192.921,28.2173 L 189.749,31.3893 L 180.557,22.1973 Z "/>
		<path id="dp_path054" fill="#a53132" fill-rule="evenodd" d="M 176.569,22.1973 L 185.761,13.0053 L 189.749,13.0053 L 180.557,22.1973 L 189.749,31.3893 L 185.761,31.3893 Z "/>
		<path id="dp_path055" fill="url(#grad_dp_003)" fill-rule="evenodd" d="M 166.535,36.22 L 169.696,39.3813 L 175.715,33.3627 L 181.745,39.3933 L 184.919,36.22 L 175.727,27.028 Z "/>
		<path id="dp_path056" fill="#b95737" fill-rule="evenodd" d="M 175.727,23.04 L 166.535,32.232 L 166.535,36.22 L 175.727,27.028 L 184.919,36.22 L 184.919,32.232 Z "/>
		<path id="dp_path057" fill="url(#grad_dp_004)" fill-rule="evenodd" d="M 166.535,8.176 L 169.696,5.01333 L 175.715,11.0333 L 181.745,5.00267 L 184.919,8.176 L 175.727,17.368 Z "/>
		<path id="dp_path058" fill="#5e2b2c" fill-rule="evenodd" d="M 175.727,21.356 L 166.535,12.1627 L 166.535,8.176 L 175.727,17.368 L 184.919,8.176 L 184.919,12.1627 Z "/>
		<path id="dp_path059" fill="black" fill-rule="evenodd" d="M 151.652,45.1373 L 152.637,45.1373 C 152.973,45.1373 153.833,45.1373 153.833,46.2467 C 153.833,46.9667 153.372,47.3667 152.717,47.3667 L 152.128,47.3667 L 152.128,49.0013 L 151.652,49.0013 Z M 152.128,46.9773 L 152.697,46.9773 C 153.043,46.9773 153.336,46.7387 153.336,46.224 C 153.336,45.8027 153.135,45.5267 152.664,45.5267 L 152.128,45.5267 Z "/>
		<path id="dp_path060" fill="black" fill-rule="evenodd" d="M 154.157,46.1 L 154.612,46.1 L 154.612,46.5333 L 154.623,46.5333 C 154.753,46.256 154.927,46.024 155.252,46.024 C 155.343,46.024 155.408,46.0347 155.452,46.056 L 155.452,46.5 C 155.408,46.4947 155.355,46.4787 155.208,46.4787 C 154.981,46.4787 154.612,46.6853 154.612,47.1653 L 154.612,49.0013 L 154.157,49.0013 Z "/>
		<path id="dp_path061" fill="black" fill-rule="evenodd" d="M 156.583,46.0253 C 157.421,46.0253 157.627,46.7333 157.627,47.5507 C 157.627,48.3693 157.416,49.0773 156.583,49.0773 C 155.743,49.0773 155.539,48.3693 155.539,47.5507 C 155.539,46.7333 155.749,46.0253 156.583,46.0253 Z M 157.152,47.5507 C 157.152,46.924 157.059,46.3813 156.572,46.3813 C 156.111,46.3813 156.013,46.924 156.013,47.5507 C 156.013,48.1787 156.105,48.72 156.572,48.72 C 157.053,48.72 157.152,48.1787 157.152,47.5507 Z "/>
		<path id="dp_path062" fill="black" fill-rule="evenodd" d="M 158.136,46.4573 L 157.713,46.4573 L 157.713,46.1 L 158.136,46.1 L 158.136,45.7587 C 158.136,45.32 158.325,45.0933 158.765,45.0933 L 159.095,45.0933 L 159.095,45.484 L 158.883,45.484 C 158.688,45.484 158.591,45.5587 158.591,45.76 L 158.591,46.1013 L 159.089,46.1013 L 159.089,46.4587 L 158.591,46.4587 L 158.591,49.0027 L 158.136,49.0027 Z M 159.429,45.1373 L 159.884,45.1373 L 159.884,45.656 L 159.429,45.656 Z M 159.429,46.1 L 159.884,46.1 L 159.884,49.0013 L 159.429,49.0013 Z "/>
		<path id="dp_path063" fill="black" fill-rule="evenodd" d="M 160.56,45.256 L 161.016,45.256 L 161.016,46.1 L 161.52,46.1 L 161.52,46.4573 L 161.016,46.4573 L 161.016,48.32 C 161.016,48.552 161.075,48.644 161.313,48.644 C 161.411,48.644 161.464,48.6333 161.513,48.628 L 161.513,49 C 161.455,49.012 161.336,49.0333 161.145,49.0333 C 160.676,49.0333 160.561,48.8373 160.561,48.46 L 160.561,46.4573 L 160.139,46.4573 L 160.139,46.0987 L 160.561,46.0987 L 160.561,45.256 Z "/>
		<path id="dp_path064" fill="black" fill-rule="evenodd" d="M 163.1,45.256 L 163.555,45.256 L 163.555,46.1 L 164.057,46.1 L 164.057,46.4573 L 163.555,46.4573 L 163.555,48.32 C 163.555,48.552 163.615,48.644 163.852,48.644 C 163.949,48.644 164.004,48.6333 164.053,48.628 L 164.053,49 C 163.993,49.012 163.873,49.0333 163.684,49.0333 C 163.213,49.0333 163.1,48.8373 163.1,48.46 L 163.1,46.4573 L 162.679,46.4573 L 162.679,46.0987 L 163.1,46.0987 Z "/>
		<path id="dp_path065" fill="black" fill-rule="evenodd" d="M 164.285,45.1373 L 164.74,45.1373 L 164.74,46.4307 L 164.749,46.4307 C 164.869,46.1933 165.188,46.0253 165.449,46.0253 C 166.196,46.0253 166.196,46.604 166.196,46.944 L 166.196,49.0027 L 165.741,49.0027 L 165.741,46.9987 C 165.741,46.7773 165.725,46.4147 165.312,46.4147 C 165.069,46.4147 164.74,46.5773 164.74,46.9987 L 164.74,49.0027 L 164.285,49.0027 Z "/>
		<path id="dp_path066" fill="black" fill-rule="evenodd" d="M 166.709,46.1 L 167.165,46.1 L 167.165,46.5333 L 167.175,46.5333 C 167.305,46.256 167.479,46.024 167.803,46.024 C 167.896,46.024 167.96,46.0347 168.004,46.056 L 168.004,46.5 C 167.96,46.4947 167.907,46.4787 167.76,46.4787 C 167.532,46.4787 167.165,46.6853 167.165,47.1653 L 167.165,49.0013 L 166.709,49.0013 Z "/>
		<path id="dp_path067" fill="black" fill-rule="evenodd" d="M 169.135,46.0253 C 169.972,46.0253 170.179,46.7333 170.179,47.5507 C 170.179,48.3693 169.968,49.0773 169.135,49.0773 C 168.295,49.0773 168.089,48.3693 168.089,47.5507 C 168.089,46.7333 168.3,46.0253 169.135,46.0253 Z M 169.703,47.5507 C 169.703,46.924 169.611,46.3813 169.124,46.3813 C 168.664,46.3813 168.565,46.924 168.565,47.5507 C 168.565,48.1787 168.657,48.72 169.124,48.72 C 169.605,48.72 169.703,48.1787 169.703,47.5507 Z "/>
		<path id="dp_path068" fill="black" fill-rule="evenodd" d="M 172.463,49.0013 L 172.031,49.0013 L 172.031,48.6613 L 172.02,48.6613 C 171.9,48.9267 171.597,49.0773 171.316,49.0773 C 170.552,49.0773 170.552,48.4973 170.552,48.1573 L 170.552,46.1 L 171.008,46.1 L 171.008,48.1027 C 171.008,48.324 171.024,48.688 171.435,48.688 C 171.68,48.688 172.009,48.5253 172.009,48.1027 L 172.009,46.1 L 172.464,46.1 L 172.464,49.0013 Z "/>
		<path id="dp_path069" fill="black" fill-rule="evenodd" d="M 174.887,48.8187 C 174.887,49.684 174.487,49.9973 173.903,49.9973 C 173.724,49.9973 173.025,49.9973 172.949,49.272 L 173.404,49.272 C 173.427,49.5373 173.632,49.64 173.869,49.64 C 174.455,49.64 174.432,49.1907 174.432,48.9907 L 174.432,48.6107 L 174.423,48.6107 C 174.324,48.8547 174.053,49.0013 173.767,49.0013 C 172.923,49.0013 172.868,47.9347 172.868,47.5507 C 172.868,46.7667 173.08,46.0253 173.816,46.0253 C 174.131,46.0253 174.384,46.2413 174.444,46.4693 L 174.456,46.4693 L 174.456,46.1013 L 174.887,46.1013 Z M 173.345,47.5507 C 173.345,48.0227 173.415,48.612 173.869,48.612 C 174.363,48.612 174.46,48.148 174.46,47.5507 C 174.46,46.988 174.363,46.4147 173.875,46.4147 C 173.453,46.4147 173.345,46.8587 173.345,47.5507 Z "/>
		<path id="dp_path070" fill="black" fill-rule="evenodd" d="M 175.403,45.1373 L 175.857,45.1373 L 175.857,46.4307 L 175.869,46.4307 C 175.987,46.1933 176.308,46.0253 176.565,46.0253 C 177.315,46.0253 177.315,46.604 177.315,46.944 L 177.315,49.0027 L 176.859,49.0027 L 176.859,46.9987 C 176.859,46.7773 176.841,46.4147 176.432,46.4147 C 176.188,46.4147 175.857,46.5773 175.857,46.9987 L 175.857,49.0027 L 175.403,49.0027 Z "/>
		<path id="dp_path071" fill="black" fill-rule="evenodd" d="M 179.061,45.1373 L 179.537,45.1373 L 179.537,47.0093 L 179.548,47.0093 L 180.885,45.1373 L 181.416,45.1373 L 180.247,46.7507 L 181.513,49.0027 L 180.983,49.0027 L 179.939,47.14 L 179.539,47.6867 L 179.539,49.0027 L 179.063,49.0027 L 179.063,45.1373 Z "/>
		<path id="dp_path072" fill="black" fill-rule="evenodd" d="M 181.669,46.1 L 182.103,46.1 L 182.103,46.4413 L 182.113,46.4413 C 182.233,46.176 182.536,46.024 182.816,46.024 C 183.58,46.024 183.58,46.6027 183.58,46.9427 L 183.58,49.0013 L 183.125,49.0013 L 183.125,46.9987 C 183.125,46.776 183.108,46.4147 182.699,46.4147 C 182.455,46.4147 182.124,46.5773 182.124,46.9987 L 182.124,49.0013 L 181.669,49.0013 Z "/>
		<path id="dp_path073" fill="black" fill-rule="evenodd" d="M 184.999,46.0253 C 185.836,46.0253 186.043,46.7333 186.043,47.5507 C 186.043,48.3693 185.831,49.0773 184.999,49.0773 C 184.16,49.0773 183.953,48.3693 183.953,47.5507 C 183.953,46.7333 184.164,46.0253 184.999,46.0253 Z M 185.567,47.5507 C 185.567,46.924 185.475,46.3813 184.988,46.3813 C 184.528,46.3813 184.429,46.924 184.429,47.5507 C 184.429,48.1787 184.521,48.72 184.988,48.72 C 185.469,48.72 185.567,48.1787 185.567,47.5507 Z "/>
		<path id="dp_path074" fill="black" fill-rule="evenodd" d="M 186.227,46.1 L 186.704,46.1 L 187.168,48.4707 L 187.179,48.4707 L 187.672,46.1 L 188.208,46.1 L 188.689,48.4707 L 188.701,48.4707 L 189.151,46.1 L 189.627,46.1 L 188.939,49.0013 L 188.441,49.0013 L 187.932,46.6307 L 187.921,46.6307 L 187.435,49.0013 L 186.904,49.0013 Z "/>
		<path id="dp_path075" fill="black" fill-rule="evenodd" d="M 189.924,45.1373 L 190.379,45.1373 L 190.379,49.0027 L 189.924,49.0027 Z "/>
		<path id="dp_path076" fill="black" fill-rule="evenodd" d="M 191.299,47.604 C 191.299,48.0493 191.299,48.72 191.857,48.72 C 192.289,48.72 192.349,48.2653 192.349,48.0493 L 192.805,48.0493 C 192.805,48.3573 192.62,49.0773 191.831,49.0773 C 191.121,49.0773 190.823,48.584 190.823,47.5893 C 190.823,46.864 190.965,46.0253 191.859,46.0253 C 192.747,46.0253 192.828,46.7987 192.828,47.4213 L 192.828,47.6053 L 191.299,47.6053 Z M 192.348,47.248 L 192.348,47.092 C 192.348,46.7667 192.247,46.3827 191.845,46.3827 C 191.369,46.3827 191.315,46.9667 191.315,47.14 L 191.315,47.2493 L 192.348,47.2493 Z "/>
		<path id="dp_path077" fill="black" fill-rule="evenodd" d="M 195.152,49.0013 L 194.72,49.0013 L 194.72,48.644 L 194.708,48.644 C 194.649,48.8613 194.395,49.0773 194.08,49.0773 C 193.393,49.0773 193.133,48.4653 193.133,47.5493 C 193.133,46.9427 193.232,46.024 194.049,46.024 C 194.308,46.024 194.584,46.1813 194.687,46.4293 L 194.697,46.4293 L 194.697,45.1373 L 195.152,45.1373 Z M 194.14,48.688 C 194.643,48.688 194.725,48.2107 194.725,47.5493 C 194.725,46.9867 194.628,46.4133 194.14,46.4133 C 193.719,46.4133 193.611,46.8573 193.611,47.5493 C 193.611,48.244 193.719,48.688 194.14,48.688 Z "/>
		<path id="dp_path078" fill="black" fill-rule="evenodd" d="M 197.577,48.8187 C 197.577,49.684 197.177,49.9973 196.592,49.9973 C 196.413,49.9973 195.716,49.9973 195.639,49.272 L 196.095,49.272 C 196.116,49.5373 196.321,49.64 196.56,49.64 C 197.144,49.64 197.123,49.1907 197.123,48.9907 L 197.123,48.6107 L 197.111,48.6107 C 197.015,48.8547 196.743,49.0013 196.456,49.0013 C 195.612,49.0013 195.557,47.9347 195.557,47.5507 C 195.557,46.7667 195.768,46.0253 196.504,46.0253 C 196.819,46.0253 197.072,46.2413 197.132,46.4693 L 197.143,46.4693 L 197.143,46.1013 L 197.576,46.1013 L 197.576,48.8187 Z M 196.035,47.5507 C 196.035,48.0227 196.105,48.612 196.56,48.612 C 197.053,48.612 197.151,48.148 197.151,47.5507 C 197.151,46.988 197.053,46.4147 196.567,46.4147 C 196.144,46.4147 196.035,46.8587 196.035,47.5507 Z "/>
		<path id="dp_path079" fill="black" fill-rule="evenodd" d="M 198.471,47.604 C 198.471,48.0493 198.471,48.72 199.028,48.72 C 199.461,48.72 199.521,48.2653 199.521,48.0493 L 199.976,48.0493 C 199.976,48.3573 199.792,49.0773 199.001,49.0773 C 198.293,49.0773 197.996,48.584 197.996,47.5893 C 197.996,46.864 198.137,46.0253 199.031,46.0253 C 199.917,46.0253 199.999,46.7987 199.999,47.4213 L 199.999,47.6053 L 198.471,47.6053 Z M 199.52,47.248 L 199.52,47.092 C 199.52,46.7667 199.417,46.3827 199.017,46.3827 C 198.54,46.3827 198.487,46.9667 198.487,47.14 L 198.487,47.2493 L 199.52,47.2493 Z "/>
		<path id="dp_path080" fill="none" fill-rule="evenodd" stroke="#b8b8b8" stroke-width="0.266667" stroke-linejoin="miter" stroke-miterlimit="0" stroke-linecap="round" d="M 140.38,1.84 C 140.504,18.9467 140.751,53.16 140.751,53.16"/>
	</g>
</svg>