<?xml version="1.0" encoding="UTF-8" standalone="no"?>
<svg version="1.1" xmlns="http://www.w3.org/2000/svg" xmlns:xlink="http://www.w3.org/1999/xlink" width="59" height="55">
	<defs>
		<linearGradient id="grad_dp_001" gradientUnits="userSpaceOnUse" x1="14.6693" y1="28.1867" x2="29.784" y2="28.1867">
			<stop offset="0" stop-color="#038b49"/>
			<stop offset="1" stop-color="#02a659"/>
		</linearGradient>
		<linearGradient id="grad_dp_002" gradientUnits="userSpaceOnUse" x1="41.5933" y1="28.1867" x2="56.7067" y2="28.1867">
			<stop offset="0" stop-color="#ec3136"/>
			<stop offset="1" stop-color="#c23636"/>
		</linearGradient>
		<linearGradient id="grad_dp_003" gradientUnits="userSpaceOnUse" x1="35.688" y1="34.0707" x2="35.688" y2="50.4733">
			<stop offset="0" stop-color="#f58633"/>
			<stop offset="1" stop-color="#c15e33"/>
		</linearGradient>
		<linearGradient id="grad_dp_004" gradientUnits="userSpaceOnUse" x1="35.6893" y1="22.216" x2="35.6893" y2="8.56933">
			<stop offset="0" stop-color="#a13035"/>
			<stop offset="1" stop-color="#72282d"/>
		</linearGradient>
	</defs>
	<g id="dp_dp001" transform="matrix(1,0,0,1,-6.008,-7.00933)">
		<path id="dp_path002" fill="url(#grad_dp_001)" d="M 18.548,16.9507 L 14.6827,20.8147 L 22.0427,28.1733 L 14.6707,35.5453 L 18.548,39.4227 L 29.784,28.1867 Z "/>
		<path id="dp_path003" fill="#2b6a41" d="M 34.6587,28.1867 L 23.4227,16.9507 L 18.548,16.9507 L 29.784,28.1867 L 18.548,39.4227 L 23.4227,39.4227 Z "/>
		<path id="dp_path004" fill="url(#grad_dp_002)" d="M 52.8293,16.9507 L 56.6947,20.8147 L 49.336,28.1733 L 56.7067,35.5453 L 52.8293,39.4227 L 41.5933,28.1867 Z "/>
		<path id="dp_path005" fill="#a53132" d="M 36.7187,28.1867 L 47.9547,16.9507 L 52.8293,16.9507 L 41.5933,28.1867 L 52.8293,39.4227 L 47.9547,39.4227 Z "/>
		<path id="dp_path006" fill="url(#grad_dp_003)" d="M 24.452,45.3267 L 28.3173,49.192 L 35.6747,41.8347 L 43.0467,49.2053 L 46.9253,45.3267 L 35.688,34.0907 Z "/>
		<path id="dp_path007" fill="#b95737" d="M 35.688,29.216 L 24.452,40.452 L 24.452,45.3267 L 35.688,34.0907 L 46.9253,45.3267 L 46.9253,40.452 Z "/>
		<path id="dp_path008" fill="url(#grad_dp_004)" d="M 24.452,11.0467 L 28.3173,7.18133 L 35.6747,14.54 L 43.0467,7.168 L 46.9253,11.0467 L 35.688,22.2827 Z "/>
		<path id="dp_path009" fill="#5e2b2c" d="M 35.688,27.1573 L 24.452,15.92 L 24.452,11.0467 L 35.688,22.2827 L 46.9253,11.0467 L 46.9253,15.92 Z "/>
		<path id="dp_path010" fill="black" d="M 6.26,56.2267 L 7.464,56.2267 C 7.87467,56.2267 8.92667,56.2267 8.92667,57.5827 C 8.92667,58.4627 8.36267,58.952 7.56267,58.952 L 6.84267,58.952 L 6.84267,60.9507 L 6.26,60.9507 Z M 6.84267,58.476 L 7.53733,58.476 C 7.96,58.476 8.31867,58.1853 8.31867,57.556 C 8.31867,57.04 8.07333,56.7027 7.49733,56.7027 L 6.84267,56.7027 Z "/>
		<path id="dp_path011" fill="black" d="M 9.32267,57.404 L 9.87867,57.404 L 9.87867,57.9333 L 9.892,57.9333 C 10.0507,57.5947 10.2627,57.3107 10.66,57.3107 C 10.772,57.3107 10.852,57.324 10.9053,57.3507 L 10.9053,57.8933 C 10.852,57.8867 10.7867,57.8667 10.6067,57.8667 C 10.3293,57.8667 9.87867,58.1187 9.87867,58.7067 L 9.87867,60.9507 L 9.32267,60.9507 Z "/>
		<path id="dp_path012" fill="black" d="M 12.2867,57.312 C 13.312,57.312 13.564,58.1787 13.564,59.1773 C 13.564,60.1773 13.3067,61.0427 12.2867,61.0427 C 11.2613,61.0427 11.0107,60.1773 11.0107,59.1773 C 11.0107,58.1787 11.268,57.312 12.2867,57.312 Z M 12.9827,59.1773 C 12.9827,58.4107 12.8693,57.748 12.2747,57.748 C 11.7107,57.748 11.592,58.4107 11.592,59.1773 C 11.592,59.9453 11.704,60.6067 12.2747,60.6067 C 12.8627,60.6067 12.9827,59.944 12.9827,59.1773 Z "/>
		<path id="dp_path013" fill="black" d="M 14.1867,57.8413 L 13.6693,57.8413 L 13.6693,57.404 L 14.1867,57.404 L 14.1867,56.9867 C 14.1867,56.4507 14.4173,56.1733 14.9547,56.1733 L 15.3573,56.1733 L 15.3573,56.6507 L 15.0987,56.6507 C 14.8613,56.6507 14.7427,56.7427 14.7427,56.988 L 14.7427,57.4053 L 15.3507,57.4053 L 15.3507,57.8427 L 14.7427,57.8427 L 14.7427,60.952 L 14.1867,60.952 Z M 15.7667,56.2267 L 16.3227,56.2267 L 16.3227,56.8613 L 15.7667,56.8613 Z M 15.7667,57.404 L 16.3227,57.404 L 16.3227,60.9507 L 15.7667,60.9507 Z "/>
		<path id="dp_path014" fill="black" d="M 17.1493,56.372 L 17.7067,56.372 L 17.7067,57.404 L 18.3227,57.404 L 18.3227,57.8413 L 17.7067,57.8413 L 17.7067,60.1173 C 17.7067,60.4013 17.7787,60.5133 18.0707,60.5133 C 18.1893,60.5133 18.2547,60.5 18.3147,60.4933 L 18.3147,60.9493 C 18.2427,60.9627 18.0973,60.9893 17.8653,60.9893 C 17.2907,60.9893 17.1507,60.7507 17.1507,60.288 L 17.1507,57.84 L 16.6347,57.84 L 16.6347,57.4027 L 17.1507,57.4027 L 17.1507,56.372 Z "/>
		<path id="dp_path015" fill="black" d="M 20.2533,56.372 L 20.8093,56.372 L 20.8093,57.404 L 21.424,57.404 L 21.424,57.8413 L 20.8093,57.8413 L 20.8093,60.1173 C 20.8093,60.4013 20.8827,60.5133 21.1733,60.5133 C 21.292,60.5133 21.3587,60.5 21.4187,60.4933 L 21.4187,60.9493 C 21.3453,60.9627 21.2,60.9893 20.968,60.9893 C 20.392,60.9893 20.2547,60.7507 20.2547,60.288 L 20.2547,57.84 L 19.7387,57.84 L 19.7387,57.4027 L 20.2547,57.4027 L 20.2547,56.372 Z "/>
		<path id="dp_path016" fill="black" d="M 21.7027,56.2267 L 22.2587,56.2267 L 22.2587,57.808 L 22.2707,57.808 C 22.4173,57.5173 22.8067,57.312 23.1253,57.312 C 24.0387,57.312 24.0387,58.02 24.0387,58.436 L 24.0387,60.952 L 23.4827,60.952 L 23.4827,58.5027 C 23.4827,58.232 23.4627,57.7893 22.9587,57.7893 C 22.6613,57.7893 22.2587,57.9867 22.2587,58.5027 L 22.2587,60.952 L 21.7027,60.952 Z "/>
		<path id="dp_path017" fill="black" d="M 24.6667,57.404 L 25.2227,57.404 L 25.2227,57.9333 L 25.2347,57.9333 C 25.3947,57.5947 25.6067,57.3107 26.0027,57.3107 C 26.116,57.3107 26.1947,57.324 26.248,57.3507 L 26.248,57.8933 C 26.1947,57.8867 26.1293,57.8667 25.9507,57.8667 C 25.672,57.8667 25.2227,58.1187 25.2227,58.7067 L 25.2227,60.9507 L 24.6667,60.9507 Z "/>
		<path id="dp_path018" fill="black" d="M 27.6307,57.312 C 28.6547,57.312 28.9067,58.1787 28.9067,59.1773 C 28.9067,60.1773 28.6493,61.0427 27.6307,61.0427 C 26.604,61.0427 26.3533,60.1773 26.3533,59.1773 C 26.3533,58.1787 26.6107,57.312 27.6307,57.312 Z M 28.3253,59.1773 C 28.3253,58.4107 28.2133,57.748 27.6173,57.748 C 27.0547,57.748 26.9347,58.4107 26.9347,59.1773 C 26.9347,59.9453 27.048,60.6067 27.6173,60.6067 C 28.2067,60.6067 28.3253,59.944 28.3253,59.1773 Z "/>
		<path id="dp_path019" fill="black" d="M 31.6987,60.9507 L 31.1707,60.9507 L 31.1707,60.5347 L 31.1573,60.5347 C 31.0107,60.8587 30.6413,61.0427 30.2973,61.0427 C 29.364,61.0427 29.364,60.3347 29.364,59.9187 L 29.364,57.404 L 29.92,57.404 L 29.92,59.852 C 29.92,60.1227 29.94,60.5667 30.4427,60.5667 C 30.7413,60.5667 31.1453,60.368 31.1453,59.852 L 31.1453,57.404 L 31.7,57.404 L 31.7,60.9507 Z "/>
		<path id="dp_path020" fill="black" d="M 34.6627,60.7267 C 34.6627,61.7853 34.1733,62.168 33.4587,62.168 C 33.2413,62.168 32.3867,62.168 32.2933,61.2813 L 32.8493,61.2813 C 32.8773,61.6053 33.128,61.7307 33.4187,61.7307 C 34.1333,61.7307 34.1067,61.1813 34.1067,60.9373 L 34.1067,60.4733 L 34.0947,60.4733 C 33.9747,60.7707 33.644,60.9507 33.2933,60.9507 C 32.2613,60.9507 32.1947,59.6467 32.1947,59.1773 C 32.1947,58.2187 32.4533,57.312 33.3533,57.312 C 33.7373,57.312 34.048,57.5773 34.1213,57.8547 L 34.1347,57.8547 L 34.1347,57.4053 L 34.6627,57.4053 Z M 32.7773,59.1773 C 32.7773,59.7533 32.8627,60.4747 33.4187,60.4747 C 34.0213,60.4747 34.14,59.9067 34.14,59.1773 C 34.14,58.4893 34.0213,57.788 33.4253,57.788 C 32.9093,57.788 32.7773,58.3307 32.7773,59.1773 Z "/>
		<path id="dp_path021" fill="black" d="M 35.292,56.2267 L 35.848,56.2267 L 35.848,57.808 L 35.8627,57.808 C 36.0067,57.5173 36.3987,57.312 36.7147,57.312 C 37.6293,57.312 37.6293,58.02 37.6293,58.436 L 37.6293,60.952 L 37.072,60.952 L 37.072,58.5027 C 37.072,58.232 37.052,57.7893 36.5507,57.7893 C 36.252,57.7893 35.848,57.9867 35.848,58.5027 L 35.848,60.952 L 35.292,60.952 Z "/>
		<path id="dp_path022" fill="black" d="M 39.7653,56.2267 L 40.3467,56.2267 L 40.3467,58.516 L 40.36,58.516 L 41.9947,56.2267 L 42.6427,56.2267 L 41.2133,58.1987 L 42.7627,60.952 L 42.1133,60.952 L 40.8373,58.6747 L 40.348,59.344 L 40.348,60.952 L 39.7667,60.952 L 39.7667,56.2267 Z "/>
		<path id="dp_path023" fill="black" d="M 42.9533,57.404 L 43.4827,57.404 L 43.4827,57.8213 L 43.496,57.8213 C 43.6427,57.496 44.012,57.3107 44.3547,57.3107 C 45.2893,57.3107 45.2893,58.0187 45.2893,58.4347 L 45.2893,60.9507 L 44.7333,60.9507 L 44.7333,58.5027 C 44.7333,58.2307 44.712,57.788 44.2107,57.788 C 43.9133,57.788 43.5093,57.9867 43.5093,58.5027 L 43.5093,60.9507 L 42.9533,60.9507 Z "/>
		<path id="dp_path024" fill="black" d="M 47.0227,57.312 C 48.0467,57.312 48.2987,58.1787 48.2987,59.1773 C 48.2987,60.1773 48.04,61.0427 47.0227,61.0427 C 45.9973,61.0427 45.7453,60.1773 45.7453,59.1773 C 45.7453,58.1787 46.0027,57.312 47.0227,57.312 Z M 47.7173,59.1773 C 47.7173,58.4107 47.6053,57.748 47.0093,57.748 C 46.4467,57.748 46.3267,58.4107 46.3267,59.1773 C 46.3267,59.9453 46.4387,60.6067 47.0093,60.6067 C 47.5987,60.6067 47.7173,59.944 47.7173,59.1773 Z "/>
		<path id="dp_path025" fill="black" d="M 48.524,57.404 L 49.1067,57.404 L 49.6747,60.3013 L 49.688,60.3013 L 50.2907,57.404 L 50.9453,57.404 L 51.5347,60.3013 L 51.548,60.3013 L 52.0987,57.404 L 52.68,57.404 L 51.8387,60.9507 L 51.2307,60.9507 L 50.608,58.0533 L 50.5947,58.0533 L 50,60.9507 L 49.352,60.9507 Z "/>
		<path id="dp_path026" fill="black" d="M 53.0427,56.2267 L 53.5987,56.2267 L 53.5987,60.952 L 53.0427,60.952 Z "/>
		<path id="dp_path027" fill="black" d="M 54.724,59.2427 C 54.724,59.7867 54.724,60.6067 55.4067,60.6067 C 55.9347,60.6067 56.008,60.0507 56.008,59.7867 L 56.5653,59.7867 C 56.5653,60.1627 56.3387,61.0427 55.3747,61.0427 C 54.5067,61.0427 54.1427,60.44 54.1427,59.224 C 54.1427,58.3373 54.316,57.312 55.408,57.312 C 56.4933,57.312 56.5933,58.2587 56.5933,59.0187 L 56.5933,59.244 L 54.724,59.244 Z M 56.0067,58.8067 L 56.0067,58.616 C 56.0067,58.2187 55.8827,57.7493 55.392,57.7493 C 54.8107,57.7493 54.744,58.464 54.744,58.6747 L 54.744,58.808 L 56.0067,58.808 Z "/>
		<path id="dp_path028" fill="black" d="M 59.4347,60.9507 L 58.9067,60.9507 L 58.9067,60.5133 L 58.892,60.5133 C 58.82,60.7787 58.508,61.0427 58.124,61.0427 C 57.284,61.0427 56.9667,60.2947 56.9667,59.176 C 56.9667,58.4347 57.0867,57.3107 58.0853,57.3107 C 58.4027,57.3107 58.74,57.5027 58.8653,57.8067 L 58.8787,57.8067 L 58.8787,56.2267 L 59.4347,56.2267 Z M 58.1973,60.5667 C 58.812,60.5667 58.912,59.984 58.912,59.176 C 58.912,58.488 58.7933,57.7867 58.1973,57.7867 C 57.6813,57.7867 57.5493,58.3293 57.5493,59.176 C 57.5493,60.024 57.6827,60.5667 58.1973,60.5667 Z "/>
		<path id="dp_path029" fill="black" d="M 62.3987,60.7267 C 62.3987,61.7853 61.9093,62.168 61.1947,62.168 C 60.976,62.168 60.1227,62.168 60.0293,61.2813 L 60.5867,61.2813 C 60.612,61.6053 60.8627,61.7307 61.1547,61.7307 C 61.8693,61.7307 61.8427,61.1813 61.8427,60.9373 L 61.8427,60.4733 L 61.828,60.4733 C 61.7107,60.7707 61.3787,60.9507 61.028,60.9507 C 59.996,60.9507 59.9293,59.6467 59.9293,59.1773 C 59.9293,58.2187 60.1867,57.312 61.0867,57.312 C 61.4707,57.312 61.7813,57.5773 61.8547,57.8547 L 61.868,57.8547 L 61.868,57.4053 L 62.3973,57.4053 L 62.3973,60.7267 Z M 60.5133,59.1773 C 60.5133,59.7533 60.5987,60.4747 61.1547,60.4747 C 61.7587,60.4747 61.8773,59.9067 61.8773,59.1773 C 61.8773,58.4893 61.7587,57.788 61.1627,57.788 C 60.6467,57.788 60.5133,58.3307 60.5133,59.1773 Z "/>
		<path id="dp_path030" fill="black" d="M 63.4907,59.2427 C 63.4907,59.7867 63.4907,60.6067 64.172,60.6067 C 64.7013,60.6067 64.7747,60.0507 64.7747,59.7867 L 65.3307,59.7867 C 65.3307,60.1627 65.1053,61.0427 64.14,61.0427 C 63.2733,61.0427 62.9107,60.44 62.9107,59.224 C 62.9107,58.3373 63.0827,57.312 64.1747,57.312 C 65.2587,57.312 65.3587,58.2587 65.3587,59.0187 L 65.3587,59.244 L 63.4907,59.244 Z M 64.7733,58.8067 L 64.7733,58.616 C 64.7733,58.2187 64.648,57.7493 64.1587,57.7493 C 63.576,57.7493 63.5107,58.464 63.5107,58.6747 L 63.5107,58.808 L 64.7733,58.808 Z "/>
	</g>
</svg>